{"title":"The.Hurt.Locker.2008.1080p.mkv.x264","uid":6171635,"size":10880487125,"categoryP":"video","categoryS":"hd___movies","magnet":"?xt=urn:btih:5fed668a49d2a43390a9a9d7b2e0cbede8893c04&amp;dn=The.Hurt.Locker.2008.1080p.mkv.x264&amp;tr=udp%3A%2F%2Ftracker.openbittorrent.com%3A80&amp;tr=udp%3A%2F%2Fopen.demonii.com%3A1337&amp;tr=udp%3A%2F%2Ftracker.coppersurfer.tk%3A6969&amp;tr=udp%3A%2F%2Fexodus.desync.com%3A6969","seeders":1,"leechers":0,"uploader":"joshua1964","files":1,"time":1297605291,"description":"Iraq. Forced to play a dangerous game of cat-and-mouse in the chaos of war, an elite Army bomb squad unit must come together in a city where everyone is a potential enemy and every object could be a deadly bomb.\n\nMedia info:\n\n\n\nGeneral\nComplete name                    : E:\\The.Hurt.Locker.2008.1080p.mkv.x264\\The.Hurt.Locker..mkv\nFormat                           : Matroska\nFile size                        : 10.1 GiB\nDuration                         : 2h 11mn\nOverall bit rate                 : 11.1 Mbps\nEncoded date                     : UTC 2011-02-13 12:00:23\nWriting application              : mkvmerge v3.2.0 ('Beginnings') built on Feb 12 2010 16:46:17\nWriting library                  : libebml v0.7.9 + libmatroska v0.8.1\n\nVideo\nID                               : 2\nFormat                           : AVC\nFormat/Info                      : Advanced Video Codec\nFormat profile                   : &lt;a class=&quot;__cf_email__&quot; href=&quot;/cdn-cgi/l/email-protection&quot; data-cfemail=&quot;d49cbdb3bc9498e0fae5&quot;&gt;[email&amp;#160;protected]&lt;/a&gt;&lt;script cf-hash='f9e31' type=&quot;text/javascript&quot;&gt;\n/* &lt;![CDATA[ */!function(){try{var t=&quot;currentScript&quot;in document?document.currentScript:function(){for(var t=document.getElementsByTagName(&quot;script&quot;),e=t.length;e--;)if(t[e].getAttribute(&quot;cf-hash&quot;))return t[e]}();if(t&amp;&amp;t.previousSibling){var e,r,n,i,c=t.previousSibling,a=c.getAttribute(&quot;data-cfemail&quot;);if(a){for(e=&quot;&quot;,r=parseInt(a.substr(0,2),16),n=2;a.length-n;n+=2)i=parseInt(a.substr(n,2),16)^r,e+=String.fromCharCode(i);e=document.createTextNode(e),c.parentNode.replaceChild(e,c)}}}catch(u){}}();/* ]]&gt; */&lt;/script&gt;\nFormat settings, CABAC           : Yes\nFormat settings, ReFrames        : 4 frames\nMuxing mode                      : Container profile=&lt;a class=&quot;__cf_email__&quot; href=&quot;/cdn-cgi/l/email-protection&quot; data-cfemail=&quot;782d161316170f16384c5649&quot;&gt;[email&amp;#160;protected]&lt;/a&gt;&lt;script cf-hash='f9e31' type=&quot;text/javascript&quot;&gt;\n/* &lt;![CDATA[ */!function(){try{var t=&quot;currentScript&quot;in document?document.currentScript:function(){for(var t=document.getElementsByTagName(&quot;script&quot;),e=t.length;e--;)if(t[e].getAttribute(&quot;cf-hash&quot;))return t[e]}();if(t&amp;&amp;t.previousSibling){var e,r,n,i,c=t.previousSibling,a=c.getAttribute(&quot;data-cfemail&quot;);if(a){for(e=&quot;&quot;,r=parseInt(a.substr(0,2),16),n=2;a.length-n;n+=2)i=parseInt(a.substr(n,2),16)^r,e+=String.fromCharCode(i);e=document.createTextNode(e),c.parentNode.replaceChild(e,c)}}}catch(u){}}();/* ]]&gt; */&lt;/script&gt;\nCodec ID                         : V_MPEG4/ISO/AVC\nDuration                         : 2h 11mn\nBit rate                         : 9 556 Kbps\nWidth                            : 1 920 pixels\nHeight                           : 1 080 pixels\nDisplay aspect ratio             : 16:9\nFrame rate                       : 23.976 fps\nColor space                      : YUV\nChroma subsampling               : 4:2:0\nBit depth                        : 8 bits\nScan type                        : Progressive\nBits/(Pixel*Frame)               : 0.192\nStream size                      : 8.55 GiB (84%)\nWriting library                  : x264 core 79 r1347 5ddd61b\nEncoding settings                : cabac=1 / ref=4 / deblock=1:0:0 / analyse=0x3:0x133 / me=umh / subme=7 / psy=1 / psy_rd=1.0:0.0 / mixed_ref=1 / me_range=16 / chroma_me=1 / trellis=1 / 8x8dct=1 / cqm=0 / deadzone=21,11 / chroma_qp_offset=-2 / threads=12 / nr=0 / decimate=1 / mbaff=0 / constrained_intra=0 / bframes=3 / b_pyramid=0 / b_adapt=1 / b_bias=0 / direct=1 / wpredb=1 / wpredp=2 / keyint=250 / keyint_min=25 / scenecut=40 / rc_lookahead=40 / rc=2pass / mbtree=1 / bitrate=9556 / ratetol=1.0 / qcomp=0.60 / qpmin=10 / qpmax=51 / qpstep=4 / cplxblur=20.0 / qblur=0.5 / ip_ratio=1.40 / aq=1:1.00\nLanguage                         : English\n\nAudio\nID                               : 1\nFormat                           : DTS\nFormat/Info                      : Digital Theater Systems\nCodec ID                         : A_DTS\nDuration                         : 2h 11mn\nBit rate mode                    : Constant\nBit rate                         : 1 510 Kbps\nChannel(s)                       : 6 channels\nChannel positions                : Front: L C R, Side: L R, LFE\nSampling rate                    : 48.0 KHz\nBit depth                        : 16 bits\nStream size                      : 1.38 GiB (14%)\nLanguage                         : English\n\nText\nID                               : 3\nFormat                           : UTF-8\nCodec ID                         : S_TEXT/UTF8\nCodec ID/Info                    : UTF-8 Plain Text\nLanguage                         : Dutch\n\nMenu\n00:00:00.000                     : en:00:00:00.000\n00:10:00.000                     : en:00:10:00.000\n00:20:00.000                     : en:00:20:00.000\n00:30:00.000                     : en:00:30:00.000\n00:40:00.000                     : en:00:40:00.000\n00:50:00.000                     : en:00:50:00.000\n01:00:00.000                     : en:01:00:00.000\n01:10:00.000                     : en:01:10:00.000\n01:20:00.000                     : en:01:20:00.000\n01:30:00.000                     : en:01:30:00.000\n01:40:00.000                     : en:01:40:00.000\n01:50:00.000                     : en:01:50:00.000\n02:00:00.000                     : en:02:00:00.000\n\n","torrent":{"xt":"urn:btih:5fed668a49d2a43390a9a9d7b2e0cbede8893c04","amp;dn":"The.Hurt.Locker.2008.1080p.mkv.x264","amp;tr":["udp%3A%2F%2Ftracker.openbittorrent.com%3A80","udp%3A%2F%2Fopen.demonii.com%3A1337","udp%3A%2F%2Ftracker.coppersurfer.tk%3A6969","udp%3A%2F%2Fexodus.desync.com%3A6969"],"infoHash":"5fed668a49d2a43390a9a9d7b2e0cbede8893c04","infoHashBuffer":{"type":"Buffer","data":[95,237,102,138,73,210,164,51,144,169,169,215,178,224,203,237,232,137,60,4]},"announce":[],"urlList":[]}}